<svg width="360" height="348" viewBox="0 0 360 348" fill="none" xmlns="http://www.w3.org/2000/svg">
  <path
    d="M6.24916 281.85L103.531 5.50281C103.531 5.50281 182.846 5.50281 229.801 5.50281C269.543 5.50281 324.597 64.326 345.036 117.455M6.24916 281.85L41.2784 338.515C41.2784 338.515 239.086 356.515 290.984 311.663C342.883 266.811 359.805 203.255 352.446 145.437C351.316 136.554 348.746 127.098 345.036 117.455M6.24916 281.85C6.24916 281.85 168.711 286.599 222.768 281.85C276.826 277.102 298.055 170.975 298.055 170.975H239.086M239.086 170.975C239.086 170.975 223.922 221.839 217.183 227.231C213.544 230.142 181.682 229.079 143.564 229.079M239.086 170.975H163.269M312.553 61.7802H143.009L85.1657 229.079C85.1657 229.079 115.103 228.372 143.564 229.079M345.036 117.455H181.128L163.269 170.975M143.564 229.079L163.269 170.975"
    stroke="white" stroke-width="10" />
</svg>